<svg xmlns="http://www.w3.org/2000/svg" viewBox="0 0 1600 200"><defs><style>.cls-1{fill:#002d74;}.cls-2{fill:#093f93;}.cls-3{fill:#073b8d;}.cls-4{fill:#043582;}.cls-5{fill:#02317c;}.cls-6{fill:#0c459e;}</style></defs><g id="Layer_4" data-name="Layer 4"><rect class="cls-1" width="1600" height="200"/></g><g id="Layer_3" data-name="Layer 3"><polygon class="cls-2" points="658.71 122.62 731.73 0 880.9 0 968.66 110.37 843.05 200 804.75 200 658.71 122.62"/><polygon class="cls-3" points="658.71 122.62 434.03 0 731.73 0 658.71 122.62"/><polygon class="cls-4" points="91.39 200 301.77 200 165.43 0 30.11 0 91.39 200"/><polygon class="cls-1" points="0 0 30.11 0 91.39 200 0 200 0 0"/><polygon class="cls-2" points="968.66 110.37 1118.79 0 1199.47 0 1251.05 200 1042.2 200 968.66 110.37"/><polygon class="cls-3" points="880.9 0 1118.79 0 968.66 110.37 880.9 0"/><polygon class="cls-3" points="1354.71 200 1251.05 200 1199.47 0 1482.37 0 1354.71 200"/><polygon class="cls-5" points="1518.11 200 1354.71 200 1482.37 0 1546.7 0 1518.11 200"/><polygon class="cls-1" points="1600 0 1600 200 1518.11 200 1546.7 0 1600 0"/><polygon class="cls-6" points="612.75 200 658.71 122.62 804.75 200 612.75 200"/><polygon class="cls-6" points="843.05 200 968.66 110.37 1042.2 200 843.05 200"/><polygon class="cls-2" points="412.32 0 434.03 0 658.71 122.62 612.75 200 386.67 200 412.32 0"/><polygon class="cls-3" points="301.77 200 386.67 200 412.32 0 165.43 0 301.77 200"/></g></svg>